<svg xmlns="http://www.w3.org/2000/svg" viewBox="0 0 24 24" width="24" height="24">
  <path fill="#EA4335" d="M12 5.04c1.67 0 3.2.58 4.38 1.71l3.27-3.27C17.67 1.57 14.98 1 12 1 7.35 1 3.37 3.67 1.39 7.56l3.89 3.02C6.21 7.55 8.9 5.04 12 5.04z"/>
  <path fill="#4285F4" d="M23.49 12.27c0-.81-.07-1.59-.2-2.34H12v4.44h6.44c-.28 1.47-1.11 2.71-2.36 3.55v2.95h3.82c2.23-2.05 3.59-5.07 3.59-8.6z"/>
  <path fill="#FBBC05" d="M5.28 14.78A7.12 7.12 0 0 1 4.8 12c0-.98.17-1.92.48-2.78L1.39 6.2A11.94 11.94 0 0 0 0 12c0 2.12.55 4.12 1.52 5.88l3.76-3.1z"/>
  <path fill="#34A853" d="M12 23c3.24 0 5.97-1.07 7.96-2.91l-3.82-2.95c-1.06.71-2.42 1.13-4.14 1.13-3.1 0-5.79-2.51-6.72-5.54l-3.89 3.02C3.37 20.33 7.35 23 12 23z"/>
</svg>
